<svg xmlns="http://www.w3.org/2000/svg" width="38" height="38" viewBox="0 0 38 38">
  <defs>
    <style>
      .cls-1 {
        fill: #00af76;
      }

      .cls-1, .cls-2, .cls-3 {
        fill-rule: evenodd;
      }

      .cls-2 {
        fill: #0088dc;
      }

      .cls-3 {
        fill: #eb8219;
      }
    </style>
  </defs>
  <path id="圆角矩形_1" data-name="圆角矩形 1" class="cls-1" d="M6.1,17.393L17.577,5.767a1.983,1.983,0,0,1,2.83,0h0a2.045,2.045,0,0,1,0,2.867L8.929,20.259a1.983,1.983,0,0,1-2.83,0A2.046,2.046,0,0,1,6.1,17.393Z"/>
  <path id="矩形_1" data-name="矩形 1" class="cls-2" d="M24.7,6.256h3.558v9.685H24.7V6.256h0Z"/>
  <path id="圆角矩形_1_拷贝" data-name="圆角矩形 1 拷贝" class="cls-1" d="M31.905,17.424L20.35,5.72a1.983,1.983,0,0,0-2.83,0L17.5,5.735a2.046,2.046,0,0,0,0,2.867l11.556,11.7a1.983,1.983,0,0,0,2.83,0l0.015-.015A2.045,2.045,0,0,0,31.905,17.424Z"/>
  <path id="矩形_2" data-name="矩形 2" class="cls-3" d="M6.881,27.043h24.35V30.9H6.881V27.043h0Z"/>
  <path id="圆角矩形_2" data-name="圆角矩形 2" class="cls-3" d="M6.871,24.318H7.339a1.33,1.33,0,0,1,1.33,1.33V32.3a1.33,1.33,0,0,1-1.33,1.33H6.871a1.33,1.33,0,0,1-1.33-1.33V25.648A1.33,1.33,0,0,1,6.871,24.318Z"/>
  <path id="圆角矩形_2_拷贝" data-name="圆角矩形 2 拷贝" class="cls-3" d="M1.9,25.681H2.368a1.33,1.33,0,0,1,1.33,1.33v3.927a1.33,1.33,0,0,1-1.33,1.33H1.9a1.33,1.33,0,0,1-1.33-1.33V27.011A1.33,1.33,0,0,1,1.9,25.681Z"/>
  <path id="圆角矩形_2_拷贝_2" data-name="圆角矩形 2 拷贝 2" class="cls-3" d="M31.129,24.318H30.661a1.33,1.33,0,0,0-1.33,1.33V32.3a1.33,1.33,0,0,0,1.33,1.33h0.468a1.33,1.33,0,0,0,1.33-1.33V25.648A1.33,1.33,0,0,0,31.129,24.318Z"/>
  <path id="圆角矩形_2_拷贝_3" data-name="圆角矩形 2 拷贝 3" class="cls-3" d="M36.1,25.681H35.633a1.33,1.33,0,0,0-1.33,1.33v3.927a1.33,1.33,0,0,0,1.33,1.33H36.1a1.33,1.33,0,0,0,1.33-1.33V27.011A1.33,1.33,0,0,0,36.1,25.681Z"/>
  <path id="圆角矩形_3" data-name="圆角矩形 3" class="cls-1" d="M16.857,16.913H21.1a1.9,1.9,0,0,1,1.9,1.9V22.9a1.9,1.9,0,0,1-1.9,1.9H16.857a1.9,1.9,0,0,1-1.9-1.9V18.813A1.9,1.9,0,0,1,16.857,16.913Z"/>
</svg>
